<svg id="Layer_5" enable-background="new 0 0 64 64" height="512" viewBox="0 0 64 64" width="512" xmlns="http://www.w3.org/2000/svg"><path d="m55 25h2v25h-2z"/><path d="m1 61h2v2h-2z"/><path d="m61 61h2v2h-2z"/><path d="m57 54h-2v7h-8v-7h-2v7h-4v-13c0-4.962-4.037-9-9-9s-9 4.038-9 9v13h-4v-7h-2v7h-8v-7h-2v7h-2v2h18 18 18v-2h-2zm-32 7v-13c0-3.86 3.141-7 7-7s7 3.14 7 7v13z"/><path d="m7 25h2v25h-2z"/><path d="m32 8-27.665 10.925c-1.41.557-2.335 1.905-2.335 3.405 0 2.594 2.654 4.368 5.093 3.404l24.907-9.836 24.907 9.836c2.439.964 5.093-.81 5.093-3.404 0-1.499-.925-2.848-2.335-3.404z" fill="#f0bc5e"/><path d="m59 55h-16v-6h16z" fill="#f0bc5e"/><path d="m27 51h2v2h-2z"/><circle cx="32" cy="29" fill="#f0bc5e" r="7"/><path d="m39 28h-6v-6h-2v6h-6v2h6v6h2v-6h6z"/><path d="m21 55h-16v-6h16z" fill="#f0bc5e"/><path d="m49 36h-2c0-2.206-1.794-4-4-4v-2c2.206 0 4-1.794 4-4h2c0 2.206 1.794 4 4 4v2c-2.206 0-4 1.794-4 4zm-2.687-5c.668.444 1.242 1.019 1.687 1.687.444-.668 1.019-1.242 1.687-1.687-.668-.444-1.242-1.019-1.687-1.687-.444.668-1.019 1.243-1.687 1.687z"/><path d="m59 15h-2c0-2.206-1.794-4-4-4v-2c2.206 0 4-1.794 4-4h2c0 2.206 1.794 4 4 4v2c-2.206 0-4 1.794-4 4zm-2.687-5c.668.444 1.242 1.019 1.687 1.687.444-.668 1.019-1.242 1.687-1.687-.668-.444-1.243-1.019-1.687-1.687-.444.668-1.019 1.243-1.687 1.687z"/><path d="m17 46h-2c0-2.206-1.794-4-4-4v-2c2.206 0 4-1.794 4-4h2c0 2.206 1.794 4 4 4v2c-2.206 0-4 1.794-4 4zm-2.687-5c.668.444 1.242 1.019 1.687 1.687.444-.668 1.019-1.242 1.687-1.687-.668-.444-1.242-1.019-1.687-1.687-.444.668-1.019 1.243-1.687 1.687z"/><path d="m13 11h-2c0-2.206-1.794-4-4-4v-2c2.206 0 4-1.794 4-4h2c0 2.206 1.794 4 4 4v2c-2.206 0-4 1.794-4 4zm-2.687-5c.668.444 1.243 1.019 1.687 1.687.444-.668 1.019-1.243 1.687-1.687-.668-.444-1.243-1.019-1.687-1.687-.444.668-1.019 1.243-1.687 1.687z"/></svg>