<svg id="Capa_1" enable-background="new 0 0 512 512" height="512" viewBox="0 0 512 512" width="512" xmlns="http://www.w3.org/2000/svg"><g><path d="m389.74 167.26c-6.474-34.82-37.075-61.26-73.74-61.26-.103 0-.22 0-.322 0-14.077-18.721-36.153-30-59.678-30s-45.601 11.279-59.678 30c-.103 0-.22 0-.322 0-36.665 0-67.266 26.44-73.74 61.26-34.82 6.474-61.26 37.075-61.26 73.74v90h195 195v-90c0-36.665-26.44-67.266-61.26-73.74z" fill="#ffea80"/><path d="m451 241c0-36.665-26.44-67.266-61.26-73.74-6.474-34.82-37.075-61.26-73.74-61.26-.103 0-.22 0-.322 0-14.077-18.721-36.153-30-59.678-30v255h195z" fill="#ffc34d"/><path d="m482 376-31-15 31-15v-120h-76c-36.301 0-66.599 25.8-73.5 60h-76.5-76.5c-6.901-34.2-37.2-60-73.5-60h-76v120l31 15-31 15h-30v60h256 256v-60z" fill="#9cdd05"/><path d="m512 376h-30l-31-15 31-15v-120h-76c-36.301 0-66.599 25.8-73.5 60h-76.5v150h256z" fill="#6b0"/><path d="m211 226h30v30h-30z" fill="#ffc34d"/><path d="m301 196h30v30h-30z" fill="#f96"/><path d="m256 151h-15v30h15 15v-30z" fill="#ffc34d"/><path d="m256 151h15v30h-15z" fill="#f96"/><path d="m30 346h91v30h-91z" fill="#6b0"/><path d="m391 346h91v30h-91z" fill="#288c64"/></g></svg>