<svg id="Capa_1" enable-background="new 0 0 512.008 512.008" height="512" viewBox="0 0 512.008 512.008" width="512" xmlns="http://www.w3.org/2000/svg"><g><g><g><g><g><g><path d="m259.922 492.78h-54.401c-11.805 0-22.46-7.047-27.043-17.884h-58.79v-66.956h53.873c5.726-15.832-3.266-35.987 39.28-35.987l127.715.155c16.724 0 30.284 13.508 30.284 30.169 0 16.659-13.56 30.167-30.284 30.167l38.052.006 71.944-72.602c10.309-10.275 26.52-11.717 38.497-3.432 15.433 10.673 17.409 32.659 4.125 45.892l-83.709 84.324c-3.954 3.937-9.315 6.148-14.909 6.148h-44.219" fill="#ffdcd5"/><g><path d="m76.75 400.621h42.938v82.033h-42.938z" fill="#faf7f5"/><path d="m10 381.27h66.75v120.734h-66.75z" fill="#99ebfa"/></g></g></g></g></g><circle cx="346.774" cy="165.238" fill="#fff7bf" r="155.234"/><path d="m388.634 180.863c-3.168-20.268-20.703-35.774-41.86-35.774-21.157 0-38.692 15.507-41.86 35.774-15.057 6.499-25.596 21.479-25.596 38.92 0 23.401 18.97 42.371 42.371 42.371h50.17c23.401 0 42.371-18.97 42.371-42.371-.001-17.441-10.539-32.421-25.596-38.92z" fill="#e38eba"/><g fill="#eaaacb"><circle cx="346.774" cy="80.593" r="24.727"/><ellipse cx="427.601" cy="124.046" rx="24.727" ry="24.727" transform="matrix(.189 -.982 .982 .189 225.182 520.602)"/><path d="m265.946 148.773c-13.634 0-24.726-11.093-24.726-24.727s11.092-24.727 24.726-24.727 24.727 11.093 24.727 24.727c-.001 13.634-11.093 24.727-24.727 24.727z"/></g></g><g><g><g><g><g><path d="m494.735 348.192c-15.957-11.04-37.509-9.116-51.288 4.618l-66.913 67.524c2.753-5.431 4.305-11.566 4.305-18.057 0-22.149-18.071-40.169-40.271-40.169l-127.727-.156c-17.889 0-29.691 3.355-37.146 10.558-7.288 7.042-8.614 15.977-9.68 23.155-.114.77-.227 1.529-.345 2.274h-36.347c-1.172-4.221-5.042-7.319-9.636-7.319h-32.937v-9.351c0-5.523-4.478-10-10-10h-66.75c-5.523 0-10 4.477-10 10v120.734c0 5.523 4.477 10 10 10h66.75c5.522 0 10-4.477 10-10v-9.35h32.938c4.752 0 8.73-3.314 9.747-7.758h43.071c7.164 11.042 19.498 17.884 33.016 17.884h54.4c5.522 0 10-4.477 10-10s-4.478-10-10-10h-54.4c-7.807 0-14.807-4.624-17.833-11.779-1.565-3.7-5.192-6.105-9.21-6.105h-48.791v-46.957h43.873c4.211 0 7.972-2.638 9.403-6.599 1.6-4.421 2.256-8.84 2.834-12.738.865-5.822 1.511-9.502 3.796-11.71 2.332-2.254 8.258-4.94 23.235-4.94l127.727.156c11.185 0 20.283 9.048 20.283 20.169s-9.099 20.168-20.283 20.168c-.013 0-.025 0-.038 0h-82.904c-5.523 0-10 4.477-10 10s4.478 10 10 10l120.992.005h.001c2.668 0 5.226-1.066 7.104-2.961l71.9-72.558c6.898-6.876 17.727-7.839 25.749-2.29 4.91 3.396 8.03 8.741 8.56 14.665.528 5.914-1.587 11.715-5.844 15.957l-83.67 84.284c-2.094 2.085-4.882 3.233-7.852 3.233h-44.219c-5.522 0-10 4.477-10 10s4.478 10 10 10h44.219c8.297 0 16.099-3.218 22.006-9.102l83.671-84.285c8.438-8.406 12.67-20.021 11.609-31.869-1.061-11.856-7.295-22.547-17.105-29.331zm-427.985 143.812h-46.75v-100.734h46.75zm20-81.383h22.938v62.033h-22.938z"/><path d="m314.544 488.954c-1.638-3.932-5.693-6.455-9.949-6.147-4.134.299-7.722 3.213-8.88 7.187-1.105 3.792.194 8.015 3.256 10.518 3.287 2.687 8.012 2.987 11.62.758 4.119-2.546 5.781-7.852 3.953-12.316z"/><path d="m346.773 330.473c91.11 0 165.234-74.124 165.234-165.234s-74.124-165.234-165.234-165.234-165.234 74.123-165.234 165.233c0 91.111 74.124 165.235 165.234 165.235zm0-310.469c80.082 0 145.234 65.152 145.234 145.234s-65.152 145.234-145.234 145.234-145.234-65.152-145.234-145.234 65.152-145.234 145.234-145.234z"/><path d="m269.317 219.783c0 28.877 23.493 52.371 52.371 52.371h50.17c28.878 0 52.371-23.494 52.371-52.371 0-19.12-10.363-36.531-26.809-45.721-5.971-22.875-26.486-38.974-50.647-38.974s-44.677 16.098-50.647 38.974c-16.445 9.19-26.809 26.602-26.809 45.721zm39.559-29.739c3.152-1.36 5.387-4.244 5.917-7.636 2.475-15.83 15.925-27.319 31.98-27.319 16.056 0 29.506 11.489 31.98 27.319.53 3.393 2.765 6.276 5.917 7.636 11.882 5.129 19.559 16.801 19.559 29.739 0 17.85-14.521 32.371-32.371 32.371h-50.17c-17.85 0-32.371-14.521-32.371-32.371 0-12.938 7.677-24.611 19.559-29.739z"/><path d="m346.774 115.319c19.148 0 34.727-15.578 34.727-34.726 0-19.149-15.578-34.727-34.727-34.727-19.148 0-34.727 15.578-34.727 34.727.001 19.148 15.579 34.726 34.727 34.726zm0-49.453c8.12 0 14.727 6.606 14.727 14.727 0 8.12-6.607 14.726-14.727 14.726s-14.727-6.606-14.727-14.726c.001-8.12 6.607-14.727 14.727-14.727z"/><path d="m427.602 158.773c19.148 0 34.727-15.578 34.727-34.727 0-19.148-15.578-34.727-34.727-34.727-19.148 0-34.727 15.578-34.727 34.727 0 19.148 15.578 34.727 34.727 34.727zm0-49.454c8.12 0 14.727 6.607 14.727 14.727s-6.606 14.727-14.727 14.727c-8.12 0-14.727-6.607-14.727-14.727s6.606-14.727 14.727-14.727z"/><path d="m300.673 124.046c0-19.148-15.578-34.727-34.727-34.727-19.148 0-34.727 15.578-34.727 34.727 0 19.148 15.578 34.727 34.727 34.727s34.727-15.579 34.727-34.727zm-49.453 0c0-8.12 6.607-14.727 14.727-14.727s14.727 6.607 14.727 14.727-6.606 14.727-14.727 14.727-14.727-6.607-14.727-14.727z"/></g></g></g></g></g></g></svg>