<svg id="_x30_1_Parrot" enable-background="new 0 0 64 64" height="512" viewBox="0 0 64 64" width="512" xmlns="http://www.w3.org/2000/svg"><path d="m37.55 45.83c-1.24-.2-2.66-.48-4.22-.83-1.48-.34-3.09-.75-4.78-1.22-1.86-.52-3.82-1.13-5.85-1.8-.32-.11-.64-.22-.96-.33-2.73-.94-5.3-1.93-7.62-2.91-1.33-.56-2.57-1.11-3.72-1.65-1.39-.65-2.63-1.29-3.7-1.88-1.09-.6-2-1.15-2.69-1.65l-.95 2.74c-2.79 8.1.1 16.77 6.55 21.71 1.62 1.23 3.45 2.23 5.48 2.93.6.21 1.2.38 1.8.52l4.51.54c.7 0 1.4-.04 2.1-.12 6.88-.75 13.09-5.17 15.86-11.92.14-.34.27-.69.39-1.04l.95-2.74c-.85-.03-1.92-.15-3.15-.35z" fill="#ffeaa7"/><path d="m42.25 7.5-5.47-3.74c-.56-.26-1.15-.49-1.75-.7-2.03-.7-4.09-1.04-6.12-1.06-8.13-.08-15.75 4.98-18.53 13.08l-.07.11c.71.44 1.61 1.03 2.68 1.71 1.04.66 2.25 1.41 3.6 2.2 1.11.64 2.32 1.31 3.62 1.97 2.26 1.15 4.78 2.27 7.51 3.21.96.33 1.92.63 2.86.9 3.24.92 6.33 1.48 9.03 1.85 1.55.22 2.97.37 4.21.49 1.29.13 2.39.22 3.23.3l.01-.12c.12-.35.23-.7.33-1.06.49-1.75.73-3.51.73-5.25 0-1.72-.23-3.41-5.87-13.89z" fill="#ffeaa7"/><path d="m4.01 33.56c-1.12-.79-1.68-1.41-1.55-1.78 0 0 4.49-13.03 5.98-17.37.09-.26.74.07 1.87.78.71.44 1.61 1.03 2.68 1.71 1.04.66 2.25 1.41 3.6 2.2 1.11.64 2.32 1.31 3.62 1.97 2.26 1.15 4.78 2.27 7.51 3.21-4.8-1.65-10.03.9-11.68 5.7-1.65 4.79.9 10.02 5.7 11.67-2.73-.94-5.3-1.93-7.62-2.91-1.33-.56-2.57-1.11-3.72-1.65-1.39-.65-2.63-1.29-3.7-1.88-1.09-.6-2-1.15-2.69-1.65z" fill="#b4dd7f"/><path d="m22.7 41.98c-.32-.11-.64-.22-.96-.33 4.8 1.65 10.03-.9 11.68-5.7 1.65-4.79-.9-10.02-5.7-11.67.96.33 1.92.63 2.86.9 3.24.92 6.33 1.48 9.03 1.85 1.55.22 2.97.37 4.21.49 1.29.13 2.39.22 3.23.3 1.32.14 2.03.28 1.94.54-1.33 3.86-5.98 17.37-5.98 17.37-.13.37-.95.51-2.31.45-.85-.03-1.92-.15-3.15-.35-1.24-.2-2.66-.48-4.22-.83-1.48-.34-3.09-.75-4.78-1.22-1.86-.52-3.82-1.13-5.85-1.8z" fill="#b4dd7f"/><path d="m16.04 29.98c1.65-4.8 6.88-7.35 11.68-5.7s7.35 6.88 5.7 11.67c-1.65 4.8-6.88 7.35-11.68 5.7s-7.35-6.88-5.7-11.67z" fill="#e6e9ed"/><path d="m24.76 32.32c1.85.32 3.11 1.83 2.81 3.36-.29 1.52-2.03 2.5-3.88 2.17s-3.11-1.83-2.81-3.36c.29-1.53 2.03-2.5 3.88-2.17z" fill="#cf9e76"/><path d="m24.281 28.797c-.118.611.286 1.196.903 1.305.067.012.134.018.201.018.54 0 1.024-.383 1.129-.927.118-.611-.286-1.196-.903-1.305-.067-.012-.134-.018-.201-.018-.54 0-1.024.382-1.129.927z"/><path d="m29.434 31.999c.067.012.134.018.201.018.54 0 1.024-.383 1.129-.927.118-.611-.286-1.196-.903-1.305-.067-.012-.134-.018-.201-.018-.54 0-1.024.383-1.129.927-.118.612.286 1.196.903 1.305z"/><path d="m20.707 30.436c.54 0 1.024-.383 1.129-.927.118-.611-.286-1.196-.903-1.305-.067-.012-.134-.018-.201-.018-.54 0-1.024.383-1.129.927-.118.611.286 1.196.903 1.305.068.013.135.018.201.018z"/><path d="m19.894 34.302c-.175.908.034 1.852.587 2.657.667.969 1.773 1.654 3.035 1.877.297.052.591.078.881.078 2.034 0 3.809-1.246 4.157-3.048.175-.909-.034-1.853-.587-2.658-.667-.969-1.773-1.653-3.035-1.876-2.384-.422-4.642.911-5.038 2.97zm6.424.039c.175.255.364.661.271 1.146-.188.976-1.437 1.606-2.725 1.379-.738-.13-1.371-.51-1.736-1.041-.175-.255-.364-.66-.271-1.145.162-.841 1.111-1.427 2.195-1.427.174 0 .352.015.53.047.738.131 1.371.511 1.736 1.041z"/><path d="m62.492 46.173c-.535-.888-1.437-1.512-2.474-1.712-1.788-.348-3.593.655-4.186 2.277l-5.466 12.902c-.344.938-1.345 1.497-2.376 1.332-.638-.103-1.186-.467-1.504-1-.299-.501-.359-1.079-.177-1.602l10.635-28.037c1.338-3.795 1.75-9.671-1.109-14.778-2.425-4.332-6.791-7.282-12.624-8.532l-.006.029c-2.176-2.199-4.832-3.899-7.844-4.935-10.289-3.539-21.49 1.665-25.526 11.63-.755-.406-1.2-.51-1.638-.357-.33.114-.584.369-.697.699l-5.984 17.363c-.196.568-.199 1.264 1.307 2.475l-.706 2.048c-1.774 5.148-1.436 10.678.953 15.572s6.542 8.564 11.694 10.337c2.192.754 4.425 1.112 6.624 1.112 8.467 0 16.398-5.312 19.305-13.749l.724-2.101c1.356-.061 2.292-.384 2.537-1.093l5.983-17.363c.114-.33.07-.688-.119-.98-.252-.389-.666-.582-1.508-.726.026-.092.055-.183.08-.275h.003c0-.003-.001-.006-.001-.009 1.294-4.762.846-9.769-1.339-14.246-.472-.966-1.031-1.87-1.634-2.736 3.959 1.344 6.88 3.618 8.669 6.814 2.533 4.525 2.162 9.753.977 13.114l-10.637 28.04c-.384 1.1-.26 2.307.339 3.311.623 1.043 1.681 1.754 2.904 1.95 1.973.314 3.899-.784 4.554-2.572l5.466-12.902c.277-.757 1.115-1.21 1.948-1.047.481.093.896.377 1.139.78.227.377.282.814.154 1.231l-4.357 14.272 1.913.584 4.357-14.272c.291-.954.162-1.991-.353-2.848zm-16.193-19.426c-.25-.023-.503-.047-.791-.073-.249-.023-.509-.046-.779-.071-.764-6.827-4.185-13.031-9.563-17.393.889-.24 1.79-.408 2.695-.519 3.332 3.564 8.192 10.054 8.515 17.792-.026.087-.05.176-.077.264zm-14.209 2.631c.958 1.964 1.094 4.184.382 6.25-1.471 4.267-6.141 6.543-10.41 5.072-2.068-.711-3.735-2.185-4.694-4.149s-1.095-4.184-.383-6.25c1.167-3.387 4.351-5.519 7.75-5.519.883 0 1.78.144 2.66.447 2.069.711 3.736 2.185 4.695 4.149zm6.365 20.083c-5.028 5.905-12.87 8.027-17.69 8.784-.657-.652-1.267-1.354-1.831-2.098 7.012-.289 15.925-3.944 19.173-9.213.421.058.828.105 1.22.141l-.524 1.521c-.103.297-.232.577-.348.865zm-18.375 10.904c.004-.001.009-.001.014-.002.24.217.491.42.74.624-1.138-.035-2.284-.184-3.426-.439-5.511-5.835-7.96-14.454-6.326-22.044.604.275 1.224.549 1.858.821-1.453 7.534 1.497 15.92 7.138 21.022zm-12.844-23.707.006-.017c.008.004.014.008.022.012.625.327 1.29.656 1.972.987-1.754 7.373-.014 15.447 4.571 21.712-1.203-.542-2.33-1.209-3.373-1.982-3.1-5.562-5.551-13.883-3.198-20.712zm7.328 6.768c1.082.279 2.207.424 3.349.424 1.596 0 3.222-.284 4.802-.826.865.281 2.109.676 3.565 1.11-2.97 1.454-7.815 2.502-11.575 1.547-.089-.75-.135-1.502-.141-2.255zm4.575-1.643c-1.539.154-3.061.014-4.479-.413.042-.42.098-.838.168-1.254 1.394.57 2.835 1.128 4.311 1.667zm-1.554 12.376c-.34-.575-.646-1.172-.933-1.778.339.016.678.03 1.019.03 5.862 0 11.831-2.337 15.974-6.315.775.176 1.544.338 2.293.48-3.251 4.273-11.576 7.769-18.353 7.583zm-1.789-3.846c-.292-.824-.53-1.664-.721-2.516.9.162 1.833.246 2.78.246 4.287 0 8.772-1.505 11.057-3.15.77.214 1.567.427 2.373.633-4.184 3.494-10.001 5.319-15.489 4.787zm6.949-32.045c2.432.978 4.563 2.89 5.951 5.283-.217-.071-.432-.139-.65-.214-2.359-.812-4.545-1.767-6.555-2.754.357-.801.783-1.57 1.254-2.315zm8.559 6.07c-1.425-3.484-4.102-6.288-7.377-7.74.471-.594.968-1.168 1.505-1.71 3.995 1.786 6.981 6.126 8.15 10.027-.748-.174-1.508-.366-2.278-.577zm4.473 1.045c-1.002-4.362-4.244-9.52-8.755-11.934.666-.55 1.361-1.068 2.089-1.537 4.818 3.09 8.337 8.385 9.318 13.935-.855-.133-1.74-.285-2.652-.464zm4.726.761c-.866-5.983-4.445-11.768-9.459-15.34.601-.306 1.215-.579 1.84-.828 5.44 3.968 8.964 9.87 9.815 16.426-.692-.073-1.426-.159-2.196-.258zm-20.801-6.473c-.632-.334-1.24-.665-1.825-.996 3.306-7.181 10.658-12.648 18.745-13.878 1.051.497 2.047 1.083 2.973 1.759-8.33.168-16.475 5.484-19.893 13.115zm13.338-16.145c-7.413 2.101-13.72 7.328-16.904 14.138-.679-.406-1.315-.796-1.909-1.169 2.63-6.385 9.32-11.113 14.937-13.481 1.287.03 2.585.199 3.876.512zm-9.825.349c-4.385 2.751-8.592 6.672-10.707 11.528-.089-.057-.193-.123-.278-.178-.242-.156-.454-.292-.665-.427 2.078-5.404 6.467-9.29 11.65-10.923zm-14.126 11.74c.533.309 1.304.806 2.058 1.292 2.523 1.625 6.309 4.06 11.007 6.213-3.184.837-5.909 3.192-7.059 6.53-.886 2.572-.717 5.334.476 7.779.186.381.4.741.628 1.091-7.373-2.959-11.919-5.673-12.701-6.682zm-5.082 21.011.522-1.515c.283.176.599.362.934.555l-.117.341c-1.887 5.475-.98 11.752.944 17.056-.524-.759-1.011-1.549-1.423-2.392-2.154-4.415-2.459-9.402-.86-14.045zm19.967 24.171c-.438-.269-.863-.559-1.275-.867 3.476-.683 7.916-2.015 11.95-4.586-2.852 2.952-6.619 4.874-10.675 5.453zm18.18-15.66c-1.235.315-6.492-.343-14.129-2.549 2.87-.985 5.276-3.226 6.338-6.308.886-2.572.717-5.334-.476-7.779-.297-.608-.648-1.178-1.048-1.705 5.023 1.19 9.501 1.598 12.488 1.869.894.082 1.807.164 2.418.249zm-1.742-36.595c.521.01 1.042.041 1.559.099 1.314 1.367 2.43 2.937 3.286 4.69.967 1.982 1.541 4.081 1.758 6.212-1.593-4.524-4.279-8.317-6.603-11.001z"/></svg>